<?xml version="1.0" encoding="utf-8"?>
<!-- Generator: Adobe Illustrator 18.1.1, SVG Export Plug-In . SVG Version: 6.00 Build 0)  -->
<svg version="1.1" id="Слой_1" xmlns="http://www.w3.org/2000/svg" xmlns:xlink="http://www.w3.org/1999/xlink" x="0px" y="0px"
	 viewBox="0 0 39.1 25" enable-background="new 0 0 39.1 25" xml:space="preserve">
<g>
	<defs>
		<rect id="SVGID_1_" width="39" height="25"/>
	</defs>
	<clipPath id="SVGID_2_">
		<use xlink:href="#SVGID_1_"  overflow="visible"/>
	</clipPath>
	<path clip-path="url(#SVGID_2_)" fill="#705F52" d="M38.3,2.8C37.7,2.2,36.8,2,36,2.1c0-0.5-0.2-1.1-0.6-1.5c-0.8-0.8-2-0.8-2.8,0
		s-0.8,2,0,2.8c0.2,0.2,0.4,0.3,0.6,0.4l-2.4,2.4C30.4,6.1,29.9,6,29.4,6c-1.6,0-3.5,0.6-5.2,1.5C21.9,6,19.2,5,16.8,5H16
		C7.2,5.8,4,11,4,14c0,1,0.4,2,1.1,3H0v5h2c0,1.7,1.3,3,3,3h25c1.7,0,3-1.3,3-3h2v-5h-5.3c2.3-3.1,4.2-6.5,2.6-9.4l2.1-1.8
		c0.1,0.2,0.2,0.4,0.4,0.6c1,1,2.5,1,3.5,0C39.3,5.4,39.3,3.8,38.3,2.8 M27.6,8.4c0.7-0.2,1.3-0.3,1.8-0.3c0.7,0,1,0.2,1,0.2
		c1.2,1.6,0.5,3.9-2.3,7.6l-1.6,2.2H25h-2.3h-2.3c-1.4-1.9,0.6-4.6,1.3-5.3C23.4,11.2,25.7,9.4,27.6,8.4 M16.3,7.1h0.6
		c1.9,0,4.2,0.8,6.4,2.2l0.6,0.4c-1.1,0.8-2,1.7-2.8,2.4c-1,1.1-2.8,3.8-1.7,6H8.3l-1.5-2.2c-0.5-0.7-0.7-1.3-0.7-1.9
		C6.1,12.1,8.6,7.8,16.3,7.1 M2.1,19.1h3.1H9h11.1h5h0.8H28h0.1h1.7h3.3v1h-2h-27h-2V19.1z M30.1,23.1h-25c-0.6,0-1-0.4-1-1v-1h27v1
		C31.1,22.7,30.6,23.1,30.1,23.1"/>
</g>
</svg>
